<svg height="216px" version="1.1" width="78px" xmlns="http://www.w3.org/2000/svg" style="overflow: hidden; position: absolute; left: 0px; top: 0px;" xmlns:xlink="http://www.w3.org/1999/xlink"><defs style="-webkit-tap-highlight-color: rgba(0, 0, 0, 0);"><filter id="Siykdx9ry6j" filterUnits="userSpaceOnUse"><feGaussianBlur stdDeviation="2.5"></feGaussianBlur><feColorMatrix values="0 0 0 0 0 0 0 0 0 0 0 0 0 0 0 0 0 0 0.5 0"></feColorMatrix></filter><linearGradient x1="0" y1="0" x2="1" y2="0" id="linearGradientSiykdx9ry6q"><stop offset="0%" stop-color="#000000" stop-opacity="0.1"></stop><stop offset="75%" stop-color="#000000" stop-opacity="0.1"></stop><stop offset="100%" stop-color="#ffffff" stop-opacity="0"></stop></linearGradient><filter id="Siykdx9ry6w" filterUnits="userSpaceOnUse"><feGaussianBlur stdDeviation="1.5"></feGaussianBlur></filter><mask id="maskSiykdx9ry70"><g fill="#ffffff" class="rhlp-shape" transform="matrix(-1,0,0,1,78,0)"><path d="M 0 10 L 60 10 A 8 8 0 0 1 68 18 L 68 189 A 17 17 0 0 1 34 189 L 0 189 Z" transform="matrix(-1,0,0,1,78,0)" id="pathSiykdx9ry6l"></path></g></mask><path d="M39.75,164.50591805555558C39.797222222222224,168.85036250000002,32.33611111111111,168.85036250000002,30.636111111111113,165.96980694444446C30.636111111111113,165.96980694444446,31.533333333333335,165.02536250000003,31.533333333333335,165.02536250000003C32.61944444444445,166.96147361111113,38.23888888888889,167.5753625,38.23888888888889,164.3642513888889C38.23888888888889,161.86147361111114,35.169444444444444,162.19202916666669,32.61944444444445,162.19202916666669C32.61944444444445,162.19202916666669,32.61944444444445,160.86980694444446,32.61944444444445,160.86980694444446C35.075,160.86980694444446,38.05,161.2003625,38.05,158.88647361111114C38.05,156.00591805555558,33.09166666666667,156.38369583333335,31.675,158.27258472222223C31.675,158.27258472222223,30.825,157.3281402777778,30.825,157.3281402777778C32.525,154.8253625,39.513888888888886,154.49480694444446,39.56111111111111,158.69758472222225C39.56111111111111,160.44480694444445,38.38055555555556,161.1531402777778,36.96388888888889,161.48369583333334C38.522222222222226,161.76702916666667,39.702777777777776,162.71147361111113,39.75,164.50591805555558C39.75,164.50591805555558,39.75,164.50591805555558,39.75,164.50591805555558M42.016666666666666,160.20869583333337C43.81111111111111,157.9892513888889,48.91111111111111,158.08369583333337,48.91111111111111,161.71980694444446C48.91111111111111,161.71980694444446,48.91111111111111,167.7642513888889,48.91111111111111,167.7642513888889C48.91111111111111,167.7642513888889,47.541666666666664,167.7642513888889,47.541666666666664,167.7642513888889C47.541666666666664,167.7642513888889,47.541666666666664,166.77258472222223,47.541666666666664,166.77258472222223C45.84166666666667,168.8031402777778,41.544444444444444,168.23647361111114,41.544444444444444,165.07258472222225C41.544444444444444,161.90869583333335,45.888888888888886,161.3892513888889,47.541666666666664,163.37258472222223C47.77777777777778,161.29480694444447,47.21111111111111,159.8781402777778,45.32222222222222,159.9253625C44.09444444444444,160.01980694444447,43.33888888888889,160.44480694444445,42.63055555555555,161.1531402777778C42.63055555555555,161.1531402777778,42.016666666666666,160.20869583333337,42.016666666666666,160.20869583333337M42.96111111111111,165.07258472222225C42.96111111111111,167.38647361111114,46.644444444444446,167.5281402777778,47.541666666666664,165.92258472222224C47.541666666666664,165.92258472222224,47.541666666666664,164.26980694444447,47.541666666666664,164.26980694444447C46.69166666666666,162.71147361111113,42.96111111111111,162.75869583333335,42.96111111111111,165.07258472222225C42.96111111111111,165.07258472222225,42.96111111111111,165.07258472222225,42.96111111111111,165.07258472222225M50.56388888888889,169.98369583333334C50.56388888888889,169.98369583333334,50.56388888888889,166.63091805555558,50.56388888888889,166.63091805555558C51.980555555555554,166.34758472222225,52.02777777777778,164.83647361111113,52.21666666666667,163.3253625C52.21666666666667,163.3253625,52.78333333333333,158.98091805555558,52.78333333333333,158.98091805555558C52.78333333333333,158.98091805555558,58.922222222222224,158.98091805555558,58.922222222222224,158.98091805555558C58.922222222222224,158.98091805555558,58.922222222222224,166.58369583333337,58.922222222222224,166.58369583333337C58.922222222222224,166.58369583333337,59.91388888888889,166.58369583333337,59.91388888888889,166.58369583333337C59.91388888888889,166.58369583333337,59.91388888888889,169.98369583333334,59.91388888888889,169.98369583333334C59.91388888888889,169.98369583333334,58.544444444444444,169.98369583333334,58.544444444444444,169.98369583333334C58.544444444444444,169.98369583333334,58.544444444444444,167.7642513888889,58.544444444444444,167.7642513888889C58.544444444444444,167.7642513888889,51.93333333333334,167.7642513888889,51.93333333333334,167.7642513888889C51.93333333333334,167.7642513888889,51.93333333333334,169.98369583333334,51.93333333333334,169.98369583333334C51.93333333333334,169.98369583333334,50.56388888888889,169.98369583333334,50.56388888888889,169.98369583333334C50.56388888888889,169.98369583333334,50.56388888888889,169.98369583333334,50.56388888888889,169.98369583333334M54.01111111111111,160.16147361111112C53.63333333333333,162.47536250000002,53.72777777777778,165.4031402777778,52.31111111111111,166.58369583333337C52.31111111111111,166.58369583333337,57.55277777777778,166.58369583333337,57.55277777777778,166.58369583333337C57.55277777777778,166.58369583333337,57.55277777777778,160.16147361111112,57.55277777777778,160.16147361111112C57.55277777777778,160.16147361111112,54.01111111111111,160.16147361111112,54.01111111111111,160.16147361111112C54.01111111111111,160.16147361111112,54.01111111111111,160.16147361111112,54.01111111111111,160.16147361111112M61.708333333333336,160.20869583333337C63.50277777777778,157.9892513888889,68.60277777777777,158.08369583333337,68.60277777777777,161.71980694444446C68.60277777777777,161.71980694444446,68.60277777777777,167.7642513888889,68.60277777777777,167.7642513888889C68.60277777777777,167.7642513888889,67.23333333333333,167.7642513888889,67.23333333333333,167.7642513888889C67.23333333333333,167.7642513888889,67.23333333333333,166.77258472222223,67.23333333333333,166.77258472222223C65.53333333333333,168.8031402777778,61.236111111111114,168.23647361111114,61.236111111111114,165.07258472222225C61.236111111111114,161.90869583333335,65.58055555555556,161.3892513888889,67.23333333333333,163.37258472222223C67.46944444444445,161.29480694444447,66.90277777777779,159.8781402777778,65.01388888888889,159.9253625C63.78611111111111,160.01980694444447,63.03055555555556,160.44480694444445,62.32222222222222,161.1531402777778C62.32222222222222,161.1531402777778,61.708333333333336,160.20869583333337,61.708333333333336,160.20869583333337M62.65277777777778,165.07258472222225C62.65277777777778,167.38647361111114,66.33611111111111,167.5281402777778,67.23333333333333,165.92258472222224C67.23333333333333,165.92258472222224,67.23333333333333,164.26980694444447,67.23333333333333,164.26980694444447C66.38333333333334,162.71147361111113,62.65277777777778,162.75869583333335,62.65277777777778,165.07258472222225C62.65277777777778,165.07258472222225,62.65277777777778,165.07258472222225,62.65277777777778,165.07258472222225M74.26944444444445,167.7642513888889C74.26944444444445,167.7642513888889,72.89999999999999,167.7642513888889,72.89999999999999,167.7642513888889C72.89999999999999,167.7642513888889,72.89999999999999,160.16147361111112,72.89999999999999,160.16147361111112C72.89999999999999,160.16147361111112,70.35,160.16147361111112,70.35,160.16147361111112C70.35,160.16147361111112,70.35,158.98091805555558,70.35,158.98091805555558C70.35,158.98091805555558,76.81944444444444,158.98091805555558,76.81944444444444,158.98091805555558C76.81944444444444,158.98091805555558,76.81944444444444,160.16147361111112,76.81944444444444,160.16147361111112C76.81944444444444,160.16147361111112,74.26944444444445,160.16147361111112,74.26944444444445,160.16147361111112C74.26944444444445,160.16147361111112,74.26944444444445,167.7642513888889,74.26944444444445,167.7642513888889C74.26944444444445,167.7642513888889,74.26944444444445,167.7642513888889,74.26944444444445,167.7642513888889M85.98055555555555,165.07258472222225C85.98055555555555,168.47258472222225,81.825,167.7170291666667,78.56666666666666,167.7642513888889C78.56666666666666,167.7642513888889,78.56666666666666,158.98091805555558,78.56666666666666,158.98091805555558C78.56666666666666,158.98091805555558,79.93611111111112,158.98091805555558,79.93611111111112,158.98091805555558C79.93611111111112,158.98091805555558,79.93611111111112,162.38091805555558,79.93611111111112,162.38091805555558C82.91111111111111,162.33369583333337,85.98055555555555,162.0503625,85.98055555555555,165.07258472222225C85.98055555555555,165.07258472222225,85.98055555555555,165.07258472222225,85.98055555555555,165.07258472222225M84.56388888888888,165.07258472222225C84.56388888888888,162.99480694444446,81.87222222222222,163.6559180555556,79.93611111111112,163.56147361111113C79.93611111111112,163.56147361111113,79.93611111111112,166.58369583333337,79.93611111111112,166.58369583333337C81.87222222222222,166.4892513888889,84.56388888888888,167.15036250000003,84.56388888888888,165.07258472222225C84.56388888888888,165.07258472222225,84.56388888888888,165.07258472222225,84.56388888888888,165.07258472222225M100.19444444444444,165.4031402777778C100.19444444444444,168.6142513888889,95.75555555555555,167.62258472222223,92.6861111111111,167.7642513888889C92.6861111111111,167.7642513888889,92.6861111111111,158.98091805555558,92.6861111111111,158.98091805555558C95.70833333333333,159.12258472222226,100.05277777777778,158.08369583333337,100.00555555555555,161.24758472222223C100.00555555555555,162.28647361111112,99.34444444444443,162.94758472222225,98.58888888888889,163.23091805555558C99.39166666666667,163.41980694444447,100.19444444444444,164.41147361111112,100.19444444444444,165.4031402777778C100.19444444444444,165.4031402777778,100.19444444444444,165.4031402777778,100.19444444444444,165.4031402777778M98.77777777777777,165.2142513888889C98.73055555555555,163.2781402777778,95.94444444444444,163.93925138888892,94.05555555555556,163.84480694444446C94.05555555555556,163.84480694444446,94.05555555555556,166.58369583333337,94.05555555555556,166.58369583333337C95.94444444444444,166.44202916666669,98.77777777777777,167.19758472222225,98.77777777777777,165.2142513888889C98.77777777777777,165.2142513888889,98.77777777777777,165.2142513888889,98.77777777777777,165.2142513888889M98.58888888888889,161.43647361111113C98.58888888888889,159.50036250000002,95.85,160.3031402777778,94.05555555555556,160.16147361111112C94.05555555555556,160.16147361111112,94.05555555555556,162.6642513888889,94.05555555555556,162.6642513888889C95.80277777777778,162.47536250000002,98.58888888888889,163.3253625,98.58888888888889,161.43647361111113C98.58888888888889,161.43647361111113,98.58888888888889,161.43647361111113,98.58888888888889,161.43647361111113M110.91388888888889,163.37258472222223C110.91388888888889,166.15869583333335,109.35555555555555,168.00036250000002,106.56944444444444,168.00036250000002C103.83055555555555,168.00036250000002,102.225,166.11147361111114,102.225,163.37258472222223C102.225,160.5392513888889,103.78333333333333,158.74480694444446,106.56944444444444,158.74480694444446C109.30833333333334,158.74480694444446,110.91388888888889,160.58647361111113,110.91388888888889,163.37258472222223C110.91388888888889,163.37258472222223,110.91388888888889,163.37258472222223,110.91388888888889,163.37258472222223M103.64166666666667,163.37258472222223C103.64166666666667,165.35591805555558,104.63333333333334,166.77258472222223,106.56944444444444,166.77258472222223C108.50555555555556,166.77258472222223,109.49722222222222,165.35591805555558,109.49722222222222,163.37258472222223C109.49722222222222,161.43647361111113,108.50555555555556,159.97258472222225,106.56944444444444,159.97258472222225C104.58611111111111,159.97258472222225,103.64166666666667,161.43647361111113,103.64166666666667,163.37258472222223C103.64166666666667,163.37258472222223,103.64166666666667,163.37258472222223,103.64166666666667,163.37258472222223M120.45277777777777,167.7642513888889C120.45277777777777,167.7642513888889,119.08333333333333,167.7642513888889,119.08333333333333,167.7642513888889C119.08333333333333,167.7642513888889,119.08333333333333,160.16147361111112,119.08333333333333,160.16147361111112C119.08333333333333,160.16147361111112,114.50277777777778,160.16147361111112,114.50277777777778,160.16147361111112C114.50277777777778,160.16147361111112,114.50277777777778,167.7642513888889,114.50277777777778,167.7642513888889C114.50277777777778,167.7642513888889,113.13333333333333,167.7642513888889,113.13333333333333,167.7642513888889C113.13333333333333,167.7642513888889,113.13333333333333,158.98091805555558,113.13333333333333,158.98091805555558C113.13333333333333,158.98091805555558,120.45277777777777,158.98091805555558,120.45277777777777,158.98091805555558C120.45277777777777,158.98091805555558,120.45277777777777,167.7642513888889,120.45277777777777,167.7642513888889C120.45277777777777,167.7642513888889,120.45277777777777,167.7642513888889,120.45277777777777,167.7642513888889M131.36111111111111,163.37258472222223C131.36111111111111,166.06425138888892,130.0388888888889,168.00036250000002,127.4888888888889,168.00036250000002C126.11944444444445,168.00036250000002,125.12777777777778,167.29202916666668,124.5138888888889,166.44202916666669C124.5138888888889,166.44202916666669,124.5138888888889,171.1170291666667,124.5138888888889,171.1170291666667C124.5138888888889,171.1170291666667,123.14444444444445,171.1170291666667,123.14444444444445,171.1170291666667C123.14444444444445,171.1170291666667,123.14444444444445,158.98091805555558,123.14444444444445,158.98091805555558C123.14444444444445,158.98091805555558,124.5138888888889,158.98091805555558,124.5138888888889,158.98091805555558C124.5138888888889,158.98091805555558,124.5138888888889,160.3031402777778,124.5138888888889,160.3031402777778C125.08055555555556,159.4531402777778,126.11944444444445,158.74480694444446,127.4888888888889,158.74480694444446C130.0861111111111,158.74480694444446,131.3138888888889,160.63369583333335,131.36111111111111,163.37258472222223C131.36111111111111,163.37258472222223,131.36111111111111,163.37258472222223,131.36111111111111,163.37258472222223M124.5138888888889,165.35591805555558C124.9388888888889,166.06425138888892,126.025,166.77258472222223,127.11111111111111,166.77258472222223C128.95277777777778,166.6781402777778,129.94444444444446,165.35591805555558,129.94444444444446,163.37258472222223C129.94444444444446,161.43647361111113,129,160.01980694444447,127.11111111111111,159.97258472222225C126.025,159.97258472222225,124.9388888888889,160.68091805555557,124.5138888888889,161.3892513888889C124.5138888888889,161.3892513888889,124.5138888888889,165.35591805555558,124.5138888888889,165.35591805555558C124.5138888888889,165.35591805555558,124.5138888888889,165.35591805555558,124.5138888888889,165.35591805555558M141.70277777777778,163.37258472222223C141.70277777777778,166.15869583333335,140.14444444444445,168.00036250000002,137.35833333333335,168.00036250000002C134.61944444444444,168.00036250000002,133.01388888888889,166.11147361111114,133.01388888888889,163.37258472222223C133.01388888888889,160.5392513888889,134.57222222222222,158.74480694444446,137.35833333333335,158.74480694444446C140.09722222222223,158.74480694444446,141.70277777777778,160.58647361111113,141.70277777777778,163.37258472222223C141.70277777777778,163.37258472222223,141.70277777777778,163.37258472222223,141.70277777777778,163.37258472222223M134.43055555555557,163.37258472222223C134.43055555555557,165.35591805555558,135.42222222222222,166.77258472222223,137.35833333333335,166.77258472222223C139.29444444444445,166.77258472222223,140.28611111111113,165.35591805555558,140.28611111111113,163.37258472222223C140.28611111111113,161.43647361111113,139.29444444444445,159.97258472222225,137.35833333333335,159.97258472222225C135.375,159.97258472222225,134.43055555555557,161.43647361111113,134.43055555555557,163.37258472222223C134.43055555555557,163.37258472222223,134.43055555555557,163.37258472222223,134.43055555555557,163.37258472222223M151.00555555555556,166.44202916666669C150.29722222222222,167.3392513888889,149.3527777777778,168.04758472222224,147.79444444444445,168.00036250000002C145.05555555555554,167.9059180555556,143.59166666666667,166.11147361111114,143.40277777777777,163.37258472222223C143.07222222222222,159.16980694444447,148.64444444444445,157.18647361111113,151.00555555555556,160.3031402777778C151.00555555555556,160.3031402777778,150.10833333333332,161.10591805555558,150.10833333333332,161.10591805555558C148.45555555555555,158.79202916666668,144.48888888888888,160.3031402777778,144.81944444444446,163.37258472222223C144.5361111111111,166.44202916666669,148.45555555555555,167.9531402777778,150.10833333333332,165.5920291666667C150.10833333333332,165.5920291666667,151.00555555555556,166.44202916666669,151.00555555555556,166.44202916666669" transform="matrix(0,-1,1,0,-135,189)" id="pathSiykdx9ry72"></path></defs><use xmlns:xlink="http://www.w3.org/1999/xlink" xlink:href="#pathSiykdx9ry6l" filter="url('#Siykdx9ry6j')" stroke="none" style="fill-opacity: 0.75;"></use><use xmlns:xlink="http://www.w3.org/1999/xlink" xlink:href="#pathSiykdx9ry6l" fill="#522126" stroke="none" style="fill-opacity: 0.9;"></use><use xmlns:xlink="http://www.w3.org/1999/xlink" xlink:href="#pathSiykdx9ry6l" fill="url('#linearGradientSiykdx9ry6q')" stroke="none"></use><path d="M 0 9 L 60 9 A 8 9 0 0 1 68 18 L 68 206 L 67 206 L 67 18 A 7 6 0 0 0 60 12 L 0 12 Z" stroke="rgba(255,255,255,0.175)" fill="rgba(255,255,255,0.175)" filter="url('#Siykdx9ry6w')" mask="url('#maskSiykdx9ry70')" style="stroke-width: 1;" class="rhlp-shape" transform="matrix(-1,0,0,1,78,0)"></path><use xmlns:xlink="http://www.w3.org/1999/xlink" xlink:href="#pathSiykdx9ry72" fill="rgba(0,0,0,0.2)" style="stroke-width: 0;"></use><use xmlns:xlink="http://www.w3.org/1999/xlink" xlink:href="#pathSiykdx9ry72" fill="#ffffff" transform="matrix(1,0,0,1,0,1)" style="stroke-width: 0;"></use><g stroke="#000000" fill="none" style="stroke-width: 1.1; fill-rule: evenodd; stroke-opacity: 0.2;" class="rhlp-shape" transform="matrix(-1,0,0,1,78,0)"><polyline points="45.6,20,49.8,24.2,45.6,28.4"></polyline><polyline points="49.2,20,53.4,24.2,49.2,28.4"></polyline></g><g stroke="#ffffff" fill="none" style="stroke-width: 1.1; fill-rule: evenodd; stroke-opacity: 1;" class="rhlp-shape" transform="matrix(-1,0,0,1,78,0)"><polyline points="45.6,21,49.8,25.2,45.6,29.4"></polyline><polyline points="49.2,21,53.4,25.2,49.2,29.4"></polyline></g></svg>